<?xml version="1.0" encoding="UTF-8" standalone="no"?>
<svg
   viewBox="0 0 1050 953"
   fill="none"
   width="1050"
   height="953"
   version="1.1"
   id="svg41"
   sodipodi:docname="FFWD2022_BBB.svg"
   inkscape:version="1.1.1 (3bf5ae0d25, 2021-09-20)"
   xmlns:inkscape="http://www.inkscape.org/namespaces/inkscape"
   xmlns:sodipodi="http://sodipodi.sourceforge.net/DTD/sodipodi-0.dtd"
   xmlns="http://www.w3.org/2000/svg"
   xmlns:svg="http://www.w3.org/2000/svg">
  <defs
     id="defs45" />
  <sodipodi:namedview
     id="namedview43"
     pagecolor="#ffffff"
     bordercolor="#666666"
     borderopacity="1.0"
     inkscape:pageshadow="2"
     inkscape:pageopacity="0.0"
     inkscape:pagecheckerboard="0"
     showgrid="false"
     inkscape:zoom="0.64774839"
     inkscape:cx="335.77852"
     inkscape:cy="179.08188"
     inkscape:window-width="1744"
     inkscape:window-height="1429"
     inkscape:window-x="270"
     inkscape:window-y="207"
     inkscape:window-maximized="0"
     inkscape:current-layer="svg41" />
  <path
     class="dot"
     id="forward-light-dot-start"
     d="m 339.53907,374.49636 c -2.61,0 -4.746,2.136 -4.746,4.746 0,2.61 2.136,4.746 4.746,4.746 2.611,0 4.747,-2.136 4.747,-4.746 0,-2.61 -2.136,-4.746 -4.747,-4.746 z"
     fill="#ffa500"
     stroke="#ffa500"
     stroke-width="3px"
     stroke-miterlimit="10"
     stroke-linecap="round"
     stroke-linejoin="round" />
  <path
     class="dot"
     id="forward-light-dot-end"
     d="m 743.24266,449.36999 c -1.5144,0 -2.75376,1.23878 -2.75376,2.75376 0,1.51439 1.23936,2.75375 2.75376,2.75375 1.51439,0 2.75375,-1.23936 2.75375,-2.75375 0,-1.51498 -1.23936,-2.75376 -2.75375,-2.75376 z"
     fill="#ffa500"
     stroke="#ffa500"
     stroke-width="3px"
     stroke-miterlimit="10"
     stroke-linecap="round"
     stroke-linejoin="round" />
  <g
     id="text"
     fill="none"
     transform="matrix(0.58022688,0,0,0.58022688,201.87241,111.13601)">
    <path
       id="flash"
       d="m 58.811,266.847 c 3.5596,31.324 26.5783,68.105 66.445,68.105 50.545,0 122.21,-92.548 122.21,-141.194 0,-10.678 -4.033,-18.272 -14,-18.272 -35.833,0 -140.4835,219.029 -140.4835,263.642 0,13.763 6.645,21.119 18.0355,21.119 26.578,0 57.19,-45.324 57.19,-84.242 0,-13.763 -5.221,-27.289 -18.985,-27.289 -4.745,0 -7.831,2.61 -7.831,4.983 0,2.848 2.374,4.509 7.119,4.509 101.329,0 180.35,-118.889 180.35,-164.45 0,-10.678 -4.034,-18.272 -14.001,-18.272 -28.951,0 -88.988,120.549 -88.988,163.975 0,15.187 4.508,25.866 18.747,25.866 16.611,0 41.528,-21.12 59.563,-60.512 9.966,-21.832 24.916,-41.528 42.239,-41.528 8.069,0 14.713,5.458 19.222,11.391 -4.509,-5.933 -11.153,-11.391 -19.222,-11.391 -30.612,0 -54.342,62.173 -54.342,87.09 0,9.492 2.611,14.95 9.967,14.95 22.781,0 64.309,-83.768 72.851,-109.159 -15.899,38.205 -27.526,68.817 -27.526,97.056 0,7.357 2.373,12.103 9.017,12.103 18.272,0 74.038,-87.09 74.038,-110.346 0,-6.407 -4.034,-10.203 -8.78,-10.203 -7.119,0 -11.865,7.356 -11.865,17.085 0,27.29 25.628,79.259 25.628,105.6 0,15.661 -9.017,31.086 -26.102,31.086 -13.527,0 -20.883,-9.966 -20.883,-20.645 0,-31.799 50.308,-70.242 90.175,-98.481 50.07,-35.357 80.92,-62.409 80.92,-84.953 0,-10.441 -6.17,-18.984 -17.324,-18.984 -27.289,0 -60.037,66.206 -85.666,189.841 36.308,-75.699 70.004,-102.04 84.717,-102.04 7.356,0 10.916,4.983 10.916,11.391 0,16.373 -34.409,53.867 -34.409,75.936 0,9.492 6.645,14.713 16.374,14.713 13.526,0 29.188,-11.154 40.579,-25.154"
       stroke="#7b7494"
       stroke-width="8px"
       stroke-miterlimit="10"
       stroke-linecap="round"
       stroke-linejoin="round"
       fill="none" />
    <path
       id="forward"
       d="m 223.499,477.098 c -21.595,25.154 -39.393,60.986 -39.393,87.09 0,25.391 11.629,50.782 55.055,50.782 50.545,0 122.21,-92.548 122.21,-141.195 0,-10.678 -4.034,-18.272 -14,-18.272 -35.833,0 -140.484,219.03 -140.484,263.643 0,13.763 6.645,21.119 18.036,21.119 26.577,0 57.189,-45.324 57.189,-84.242 0,-13.763 -5.22,-27.289 -18.984,-27.289 -4.746,0 -7.831,2.61 -7.831,4.983 0,2.848 2.374,4.509 7.119,4.509 39.867,0 52.919,-22.069 72.615,-43.427 8.068,-8.779 19.221,-17.322 33.222,-24.679 -31.561,16.611 -48.41,38.918 -48.41,56.952 0,11.391 5.696,18.273 17.323,18.273 28.239,0 56.479,-48.41 56.479,-82.344 0,-11.628 -4.035,-19.696 -14.001,-19.696 -11.154,0 -20.409,14.95 -20.409,29.188 0,16.374 9.018,27.765 23.731,27.765 25.866,0 48.41,-40.817 48.41,-66.445 0,-6.408 -3.56,-9.017 -7.357,-9.017 -7.119,0 -12.34,7.356 -12.34,17.085 0,8.305 4.035,19.459 18.985,19.459 9.255,0 22.543,-4.746 41.764,-18.035 -30.612,37.968 -50.307,74.75 -50.307,90.886 0,7.357 2.373,11.154 8.305,11.154 21.595,0 70.005,-102.04 87.327,-102.04 3.085,0 4.272,2.136 4.272,4.746 0,12.34 -44.375,61.699 -44.375,86.14 0,7.119 4.745,11.154 11.39,11.154 25.866,0 55.291,-60.987 76.411,-99.192 -20.17,36.781 -35.595,65.732 -35.595,84.005 0,9.729 3.796,15.187 12.814,15.187 26.341,0 67.156,-76.886 67.156,-99.192 0,-6.17 -3.321,-9.967 -8.068,-9.967 -7.831,0 -12.339,8.78 -12.339,16.848 0,8.543 5.22,20.645 22.543,20.645 7.594,0 18.035,-5.695 26.578,-15.899 7.594,-8.78 16.374,-14.475 25.629,-14.475 8.068,0 14.712,5.458 19.221,11.391 -4.509,-5.933 -11.153,-11.391 -19.221,-11.391 -30.612,0 -54.343,62.173 -54.343,87.09 0,9.492 2.611,14.95 9.967,14.95 22.781,0 64.309,-83.768 72.852,-109.159 -15.9,38.205 -27.527,68.817 -27.527,97.056 0,7.357 2.373,12.103 9.018,12.103 22.781,0 60.037,-84.717 60.037,-111.532 0,-6.408 -3.56,-9.017 -7.356,-9.017 -7.119,0 -12.34,7.356 -12.34,17.085 0,8.305 8.78,19.459 23.73,19.459 9.255,0 22.543,-4.746 41.765,-18.035 -30.612,37.968 -50.308,73.327 -50.308,89.463 0,7.356 2.848,12.577 8.305,12.577 12.103,0 39.155,-28.713 56.716,-64.547 9.967,-20.17 24.205,-37.493 40.341,-37.493 8.068,0 14.713,5.458 19.222,11.391 -4.509,-5.933 -11.154,-11.391 -19.222,-11.391 -30.612,0 -54.342,62.173 -54.342,87.09 0,9.492 5.458,14.95 12.814,14.95 34.172,0 126.245,-124.109 126.245,-173.942 0,-8.543 -4.034,-15.9 -13.526,-15.9 -31.324,0 -55.529,87.802 -55.529,133.601 0,39.392 14.238,56.241 32.273,56.241 18.985,0 32.748,-17.798 42.003,-39.63"
       stroke="#7b7494"
       stroke-width="8px"
       stroke-miterlimit="10"
       stroke-linecap="round"
       stroke-linejoin="round"
       fill="none" />
  </g>
  <g
     id="flashLight"
     fill="none"
     transform="matrix(0.58022688,0,0,0.58022688,201.87241,111.13601)">
    <path
       class="dot"
       id="line-dot"
       d="m 59.5229,241.691 c -2.6098,0 -4.7456,2.136 -4.7456,4.747 0,2.61 2.1358,4.746 4.7456,4.746 2.6106,0 4.7463,-2.136 4.7463,-4.746 0,-2.611 -2.1357,-4.747 -4.7463,-4.747 z"
       fill="#ffa500"
       stroke="#ffa500"
       stroke-width="3px"
       stroke-miterlimit="10"
       stroke-linecap="round"
       stroke-linejoin="round" />
    <g
       id="flash-lines"
       fill="none">
      <path
         class="line"
         d="M 38.4034,241.691 5.41797,235.047"
         stroke="#ffa500"
         stroke-width="5px"
         stroke-miterlimit="10"
         stroke-linecap="round"
         stroke-linejoin="round"
         fill="none"
         id="path8" />
      <path
         class="line"
         d="M 40.3015,257.591 19.894,266.608"
         stroke="#ffa500"
         stroke-width="5px"
         stroke-miterlimit="10"
         stroke-linecap="round"
         stroke-linejoin="round"
         fill="none"
         id="path10" />
      <path
         class="line"
         d="M 45.2848,228.403 31.5215,211.08"
         stroke="#ffa500"
         stroke-width="5px"
         stroke-miterlimit="10"
         stroke-linecap="round"
         stroke-linejoin="round"
         fill="none"
         id="path12" />
    </g>
  </g>
  <g
     id="shuttleworth"
     fill="none"
     transform="matrix(0.58022688,0,0,0.58022688,201.87241,111.13601)">
    <path
       class="dot"
       id="logo-light-bottom-dot"
       d="m 830.042,420.618 c -2.61,0 -4.746,2.136 -4.746,4.746 0,2.611 2.136,4.747 4.746,4.747 2.611,0 4.746,-2.136 4.746,-4.747 0,-2.61 -2.135,-4.746 -4.746,-4.746 z"
       fill="#ffa500"
       stroke="#ffa500"
       stroke-width="3px"
       stroke-miterlimit="10"
       stroke-linecap="round"
       stroke-linejoin="round" />
    <path
       class="dot"
       id="logo-light-top-dot"
       d="m 730.612,116.397 c -2.61,0 -4.745,2.136 -4.745,4.747 0,2.61 2.135,4.745 4.745,4.745 2.611,0 4.747,-2.135 4.747,-4.745 0,-2.611 -2.136,-4.747 -4.747,-4.747 z"
       fill="#ffa500"
       stroke="#ffa500"
       stroke-width="3px"
       stroke-miterlimit="10"
       stroke-linecap="round"
       stroke-linejoin="round" />
    <path
       id="logo-right"
       d="m 849.264,418.721 c 43.189,-18.985 79.259,-52.919 79.259,-100.379 0,-51.969 -41.528,-82.107 -41.528,-134.788 0,-13.527 7.119,-49.122 26.341,-49.122 7.831,0 11.391,6.407 11.391,10.679 0,7.831 -4.272,13.526 -20.646,22.781 -31.324,17.797 -64.784,46.986 -64.784,84.717 0,9.966 4.272,19.221 13.526,19.221 7.119,0 12.815,-6.407 12.815,-14.238 0,-24.205 -37.019,-41.291 -37.019,-74.75 0,-14.238 6.407,-27.765 6.407,-48.41 0,-76.1738 -99.667,-89.7 -99.667,-116.7524 0,-6.4072 4.983,-12.10245 12.102,-12.10245 15.662,0 26.341,25.62865 26.341,44.85005 0,40.5787 -37.731,85.4288 -37.731,126.7198 0,79.733 110.345,116.04 110.345,193.638 0,13.764 -3.084,26.103 -8.306,37.019"
       stroke="#ffa500"
       stroke-width="7px"
       stroke-miterlimit="10"
       stroke-linecap="round"
       stroke-linejoin="round"
       fill="none" />
    <path
       id="logo-left"
       d="m 713.765,131.585 c -49.36,31.324 -65.971,85.192 -65.971,131.703 0,51.969 24.917,126.007 49.834,126.007 7.831,0 12.102,-5.695 12.102,-10.679 0,-6.407 -4.271,-12.814 -21.357,-19.933 -51.969,-21.357 -98.243,-59.088 -98.243,-96.819 0,-9.255 4.983,-17.086 12.102,-17.086 7.831,0 12.103,7.831 12.103,19.933 0,10.679 -2.848,29.9 -2.848,44.851 0,73.326 61.936,132.652 130.279,132.652 46.986,0 83.293,-25.867 83.293,-68.581 0,-69.055 -110.346,-101.803 -110.346,-193.638 0,-10.916 3.085,-25.391 9.018,-39.867"
       stroke="#ffa500"
       stroke-width="7px"
       stroke-miterlimit="10"
       stroke-linecap="round"
       stroke-linejoin="round"
       fill="none" />
    <g
       id="logo-light-bottom-line"
       fill="none">
      <path
         class="line"
         d="m 827.432,445.062 -5.458,32.272"
         stroke="#ffa500"
         stroke-width="5px"
         stroke-miterlimit="10"
         stroke-linecap="round"
         stroke-linejoin="round"
         fill="none"
         id="path20" />
      <path
         class="line"
         d="m 841.196,442.451 11.864,18.747"
         stroke="#ffa500"
         stroke-width="5px"
         stroke-miterlimit="10"
         stroke-linecap="round"
         stroke-linejoin="round"
         fill="none"
         id="path22" />
      <path
         class="line"
         d="M 814.143,439.366 797.532,455.74"
         stroke="#ffa500"
         stroke-width="5px"
         stroke-miterlimit="10"
         stroke-linecap="round"
         stroke-linejoin="round"
         fill="none"
         id="path24" />
    </g>
  </g>
  <g
     id="arrows"
     fill="none"
     transform="matrix(0.58022688,0,0,0.58022688,201.87241,111.13601)">
    <path
       class="dot"
       id="dot"
       d="m 496.816,884.396 c -2.611,0 -4.747,2.136 -4.747,4.747 0,2.61 2.136,4.745 4.747,4.745 2.609,0 4.745,-2.135 4.745,-4.745 0,-2.611 -2.136,-4.747 -4.745,-4.747 z"
       fill="#ffa500"
       stroke="#ffa500"
       stroke-width="3px"
       stroke-miterlimit="10"
       stroke-linecap="round"
       stroke-linejoin="round" />
    <path
       id="left"
       d="m 490.7,912.07 -4.983,18.273 102.751,-16.612 -80.682,-65.969 -4.746,18.509"
       stroke="#ffa500"
       stroke-width="7px"
       stroke-miterlimit="10"
       stroke-linecap="round"
       stroke-linejoin="round"
       fill="none" />
    <path
       id="right"
       d="m 553.585,933.903 -3.56,13.763 102.752,-16.849 -80.683,-65.732 -3.796,13.763"
       stroke="#ffa500"
       stroke-width="7px"
       stroke-miterlimit="10"
       stroke-linecap="round"
       stroke-linejoin="round"
       fill="none" />
  </g>
  <g
     id="lines-decor"
     fill="none"
     transform="matrix(0.58022688,0,0,0.58022688,201.87241,111.13601)">
    <path
       class="line-decor"
       d="m 442.41,441.621 c 25.629,-18.747 50.783,-30.138 77.123,-30.138 31.561,0 48.173,16.137 48.173,32.273 0,8.543 -6.17,17.324 -15.425,17.324 -8.78,0 -16.849,-5.458 -16.849,-17.324 0,-14.95 18.036,-44.85 47.698,-44.85 24.442,0 41.528,18.748 41.528,42.715 0,34.095 -31.509,51.495 -70.716,51.495 -88.751,0 -210.109,-94.077 -289.368,-94.077 -46.627,0 -81.298,32.38 -81.298,71.533 0,24.916 18.298,44.502 46.061,44.502 35.593,0 66.302,-33.705 66.302,-56.012 0,-10.678 -5.933,-18.509 -16.611,-18.509 -6.407,0 -14.476,2.847 -23.968,9.492"
       stroke="#800080"
       stroke-width="3px"
       stroke-miterlimit="10"
       stroke-linecap="round"
       stroke-linejoin="round"
       fill="none"
       id="path32" />
    <path
       class="line-decor"
       d="m 63.0825,226.743 c 12.1024,-39.63 51.7325,-86.853 99.9045,-86.853 17.56,0 29.425,10.679 29.425,22.069 0,6.882 -4.746,13.052 -14.475,13.052 -11.865,0 -21.12,-13.527 -21.12,-33.935 0,-30.374 24.68,-58.6131 63.597,-58.6131 67.631,0 134.076,93.9721 207.402,93.9721 33.46,0 54.342,-14.239 69.055,-39.867"
       stroke="#800080"
       stroke-width="3px"
       stroke-miterlimit="10"
       stroke-linecap="round"
       stroke-linejoin="round"
       fill="none"
       id="path34" />
    <path
       class="line-decor"
       d="m 952.135,579.018 c 58.255,-21.001 96.345,-67.156 96.345,-129.049 0,-43.189 -23.26,-100.142 -62.65,-100.142 -22.069,0 -38.206,20.171 -38.206,48.173 0,70.417 88.306,149.218 88.306,241.292 0,77.606 -57.447,121.263 -129.357,121.263 -100.617,0 -321.782,-66.328 -411.601,-66.328 -72.853,0 -109.397,44.376 -109.397,89.464 0,47.222 28.239,78.546 90.887,99.666"
       stroke="#800080"
       stroke-width="3px"
       stroke-miterlimit="10"
       stroke-linecap="round"
       stroke-linejoin="round"
       fill="none"
       id="path36" />
    <path
       class="line-decor"
       d="M 165.55,572.616 C 94.7721,603.233 46.5903,661.301 46.5903,737.417 c 0,80.209 55.2907,139.06 142.8557,139.06 103.226,0 169.433,-99.667 169.433,-169.909 0,-11.627 -5.457,-20.764 -15.662,-20.764 -8.779,0 -16.136,7.713 -16.136,17.68 0,48.646 181.299,118.65 333.647,118.65 123.871,0 195.774,-53.393 231.607,-133.838"
       stroke="#800080"
       stroke-width="3px"
       stroke-miterlimit="10"
       stroke-linecap="round"
       stroke-linejoin="round"
       fill="none"
       id="path38" />
  </g>
  <text
     xml:space="preserve"
     style="font-style:normal;font-weight:normal;font-size:40px;line-height:1.25;font-family:sans-serif;fill:#7b7494;fill-opacity:1;stroke:none"
     x="517.03827"
     y="760.75043"
     id="text1325"><tspan
       sodipodi:role="line"
       id="tspan1323"
       x="517.03827"
       y="760.75043"
       style="text-align:center;text-anchor:middle;fill:#7b7494;fill-opacity:1"
       rotate="0 0 0 0 0 0 0 0 0 0 0 0 0 0 0 0 0 0 0 0 0 0 0 0 0 0 0 0 0 0 0 0 0 0 0">An abundant world through sharing </tspan><tspan
       sodipodi:role="line"
       x="517.03827"
       y="810.75043"
       id="tspan4099"
       style="text-align:center;text-anchor:middle;fill:#7b7494;fill-opacity:1"
       rotate="0 0 0 0 0 0 0 0 0 0 0 0 0 0 0 0 0 0">and collaboration</tspan></text>
</svg>
